<svg xmlns="http://www.w3.org/2000/svg" width="31" height="24" viewBox="0 0 31 24">
  <title>coffee</title>
  <g>
    <path d="M1.25,22.72a4.08,4.08,0,0,0,3,1.28H25.66a4.08,4.08,0,0,0,3-1.28,4.25,4.25,0,0,0,1.25-3.09H0A4.25,4.25,0,0,0,1.25,22.72Z" fill="#fff"/>
    <path d="M8,17.45H19.78a3.57,3.57,0,0,0,2.64-1.12,3.71,3.71,0,0,0,1.1-2.69v-.55h1.07a6.12,6.12,0,0,0,4.54-1.92A6.37,6.37,0,0,0,31,6.55a6.37,6.37,0,0,0-1.88-4.63A6.12,6.12,0,0,0,24.59,0H5.34a1,1,0,0,0-.75.32,1.06,1.06,0,0,0-.32.77V13.64a3.71,3.71,0,0,0,1.1,2.69A3.56,3.56,0,0,0,8,17.45ZM23.52,3.27h1.07a3.06,3.06,0,0,1,2.27,1,3.19,3.19,0,0,1,.94,2.32,3.19,3.19,0,0,1-.94,2.32,3.06,3.06,0,0,1-2.27,1H23.52Z" fill="#fff"/>
  </g>
</svg>
