<svg xmlns="http://www.w3.org/2000/svg" width="26" height="26" viewBox="0 0 26 26">
  <title>dr</title>
  <g>
    <path d="M25.73,10.38a13,13,0,0,0-3.54-6.58,13.37,13.37,0,0,0-1.92-1.58A13,13,0,0,0,18.06,1,13.3,13.3,0,0,0,16.74.55Q16.18.38,15.62.26A13,13,0,0,0,7.94,1a12.86,12.86,0,0,0-2.21,1.2A13,13,0,0,0,2.22,5.73,12.81,12.81,0,0,0,1,7.94,12.9,12.9,0,0,0,0,13a13.28,13.28,0,0,0,.26,2.62,13,13,0,0,0,2,4.65,13.32,13.32,0,0,0,1.58,1.92A13,13,0,0,0,18.06,25a12.9,12.9,0,0,0,2.21-1.2,13.28,13.28,0,0,0,1.92-1.59A13.08,13.08,0,0,0,25,18.06a12.85,12.85,0,0,0,.76-2.44,13,13,0,0,0,0-5.23Zm-2.57,4.71a10.29,10.29,0,0,1-1.56,3.71A10.4,10.4,0,0,1,17,22.57a10.29,10.29,0,0,1-1.95.61,10.51,10.51,0,0,1-4.18,0,10.35,10.35,0,0,1-2-.61,10.21,10.21,0,0,1-1.76-1,10.41,10.41,0,0,1-1.54-1.27,10.61,10.61,0,0,1-1.27-1.54A10.4,10.4,0,0,1,2.83,15.1a10.55,10.55,0,0,1,0-4.19,10.38,10.38,0,0,1,.61-2,10.15,10.15,0,0,1,1-1.76A10.39,10.39,0,0,1,7.2,4.39a10.26,10.26,0,0,1,3.71-1.56,10.44,10.44,0,0,1,4.19,0c.3.06.6.14.89.23A10.72,10.72,0,0,1,17,3.43a10.24,10.24,0,0,1,1.76,1,10.55,10.55,0,0,1,1.54,1.27A10.42,10.42,0,0,1,22.57,9a10.25,10.25,0,0,1,.6,2,10.39,10.39,0,0,1,0,4.18Z" style="fill: #fff"/>
    <path d="M19.3,23.27a92.34,92.34,0,0,0-3.4-11.45C14.17,7.25,9.65,1.64,9.46,1.4A1.31,1.31,0,0,0,7.43,3c0,.05,4.44,5.52,6,9.7a91.47,91.47,0,0,1,3.29,11.08,1.31,1.31,0,0,0,1.28,1,1.12,1.12,0,0,0,.28,0A1.31,1.31,0,0,0,19.3,23.27Z" style="fill: #fff"/>
    <path d="M22,3.66A1.31,1.31,0,0,0,20.19,4s-2.94,4.22-6.66,5.15A73.38,73.38,0,0,1,1.36,10.69a1.31,1.31,0,0,0,.05,2.62h0a74.67,74.67,0,0,0,12.7-1.62c4.69-1.17,8-6,8.18-6.21A1.31,1.31,0,0,0,22,3.66Z" style="fill: #fff"/>
    <path d="M25.22,12.81c-.25-.12-6.23-3-12.24,0-5,2.46-9.1,7.46-9.27,7.67a1.31,1.31,0,1,0,2,1.64s3.87-4.76,8.38-7c4.84-2.36,9.89,0,9.95,0a1.31,1.31,0,0,0,1.15-2.35Z" style="fill: #fff"/>
  </g>
</svg>
