<svg xmlns="http://www.w3.org/2000/svg" width="28" height="29" viewBox="0 0 28 29">
  <title>google plus</title>
  <g>
    <path d="M18.22,0H11.36A10.22,10.22,0,0,0,4.27,2.26,6.85,6.85,0,0,0,1.88,7.33,6,6,0,0,0,8.1,13.27c.39,0,.82,0,1.2-.08l-.06.14a3.16,3.16,0,0,0-.32,1.34A3.82,3.82,0,0,0,10,17.15l.07.08H9.93c-1.67.12-4.77.33-7,1.73A5.43,5.43,0,0,0,0,23.59C0,26.28,2.49,29,8.06,29c6.47,0,9.86-3.6,9.86-7.15,0-2.63-1.53-3.92-3.15-5.3l-1.37-1.07a2,2,0,0,1-1-1.61,2.57,2.57,0,0,1,1-1.79l0,0c1.48-1.17,3.16-2.5,3.16-5.38A6.35,6.35,0,0,0,14,1.54h2.28l.08,0,2-1.24a.15.15,0,0,0,.06-.17A.15.15,0,0,0,18.22,0ZM9.9,27.42c-3.95,0-6.6-1.86-6.6-4.62,0-1.8,1.08-3.11,3.22-3.89a15,15,0,0,1,3.94-.61,6,6,0,0,1,.86,0c2.76,2,4.09,3,4.09,5C15.41,25.85,13.29,27.42,9.9,27.42Zm0-15.21c-3.31,0-4.69-4.38-4.69-6.73A4.32,4.32,0,0,1,6,2.68,3.46,3.46,0,0,1,8.62,1.43c3,0,4.72,4.11,4.72,7a3.89,3.89,0,0,1-.94,2.76A3.83,3.83,0,0,1,9.86,12.21Z" style="fill: #fff"/>
    <path d="M27.85,13.54H24.23V9.91a.15.15,0,0,0-.15-.15H22.53a.15.15,0,0,0-.15.15v3.63h-3.6a.15.15,0,0,0-.15.15v1.59a.15.15,0,0,0,.15.15h3.6v3.65a.15.15,0,0,0,.15.15h1.56a.15.15,0,0,0,.15-.15V15.43h3.62a.15.15,0,0,0,.15-.15V13.69A.15.15,0,0,0,27.85,13.54Z" style="fill: #fff"/>
  </g>
</svg>
