<svg xmlns="http://www.w3.org/2000/svg" width="32" height="26" viewBox="0 0 32 26"><title>quote-icon</title><path d="M30.36,0h-10a1.58,1.58,0,0,0-1.64,1.51v9.18a1.58,1.58,0,0,0,1.64,1.51h4.78A9.44,9.44,0,0,1,23.34,18a9.85,9.85,0,0,1-4.11,2.83,1.46,1.46,0,0,0-.81,2l1.18,2.3a1.7,1.7,0,0,0,2.14.74,18.47,18.47,0,0,0,5.5-3.29A12.66,12.66,0,0,0,31,17.09a27.53,27.53,0,0,0,1-8.36V1.51A1.58,1.58,0,0,0,30.36,0Z" fill="#515f67"/><path d="M3.48,25.87A18.78,18.78,0,0,0,9,22.59a12.6,12.6,0,0,0,3.77-5.47,27.49,27.49,0,0,0,1-8.38V1.51A1.58,1.58,0,0,0,12.1,0h-10A1.58,1.58,0,0,0,.49,1.51v9.18A1.58,1.58,0,0,0,2.13,12.2H6.9A9.44,9.44,0,0,1,5.08,18,9.85,9.85,0,0,1,1,20.81a1.46,1.46,0,0,0-.81,2l1.18,2.29A1.71,1.71,0,0,0,3.48,25.87Z" fill="#515f67"/></svg>
