<svg xmlns="http://www.w3.org/2000/svg" width="26" height="22" viewBox="0 0 26 22">
  <title>tw</title>
  <path d="M25.59,2.56a10.18,10.18,0,0,1-1.79.61A5.7,5.7,0,0,0,25.27.78h0a.29.29,0,0,0-.43-.35h0A10.25,10.25,0,0,1,22.1,1.59l-.17,0a.72.72,0,0,1-.48-.19A5.55,5.55,0,0,0,17.74,0,5.9,5.9,0,0,0,16,.28a5.49,5.49,0,0,0-3.66,4,6.18,6.18,0,0,0-.13,2.1.21.21,0,0,1-.21.23h0A14.63,14.63,0,0,1,1.84,1.1h0a.29.29,0,0,0-.48,0h0a5.78,5.78,0,0,0,.91,6.93A5,5,0,0,1,1,7.56H1a.29.29,0,0,0-.44.26h0a5.72,5.72,0,0,0,3.27,5.26H3.72A5,5,0,0,1,2.77,13h0a.3.3,0,0,0-.33.38h0a5.65,5.65,0,0,0,4.44,3.89,10.22,10.22,0,0,1-5.79,1.79H.43a.43.43,0,0,0-.42.33.45.45,0,0,0,.21.5A15.19,15.19,0,0,0,8,22a15.37,15.37,0,0,0,6.61-1.43,14.61,14.61,0,0,0,4.83-3.68,16.21,16.21,0,0,0,3-5,16.17,16.17,0,0,0,1-5.52V6.24a1,1,0,0,1,.36-.76A11.2,11.2,0,0,0,25.95,3h0a.3.3,0,0,0-.36-.44Z" style="fill: #fff"/>
</svg>
